<?xml version="1.0" standalone="no"?>
<!DOCTYPE svg PUBLIC "-//W3C//DTD SVG 20010904//EN"
 "http://www.w3.org/TR/2001/REC-SVG-20010904/DTD/svg10.dtd">
<svg version="1.0" xmlns="http://www.w3.org/2000/svg"
 width="300.000000pt" height="300.000000pt" viewBox="0 0 300.000000 300.000000"
 preserveAspectRatio="xMidYMid meet">
<metadata>
Created by potrace 1.11, written by Peter Selinger 2001-2013
</metadata>
<g transform="translate(0.000000,300.000000) scale(0.100000,-0.100000)"
fill="#000000" stroke="none">
<path d="M1939 2989 c-314 -26 -581 -205 -793 -532 -32 -48 -77 -129 -102
-181 l-44 -94 -59 24 c-122 50 -220 66 -497 85 -175 12 -182 12 -220 -8 -24
-12 -50 -38 -69 -68 -29 -47 -30 -51 -29 -174 0 -69 4 -218 8 -331 7 -179 5
-231 -14 -410 -30 -280 -35 -498 -20 -875 13 -347 15 -355 73 -399 21 -15 43
-21 82 -21 64 0 101 23 129 80 19 37 19 51 9 334 -6 163 -8 298 -6 301 10 11
278 -89 397 -149 217 -109 410 -244 620 -435 97 -88 100 -90 155 -94 51 -4 61
-1 89 23 43 36 62 75 62 125 0 51 -9 69 -78 147 -101 117 -291 263 -505 390
l-127 76 64 23 c36 12 87 34 115 48 l50 25 78 -53 c93 -62 198 -108 320 -138
75 -19 115 -23 268 -23 205 0 263 11 403 76 319 148 575 510 673 951 30 135
38 458 15 597 -35 205 -93 328 -211 447 -92 92 -189 148 -325 187 -141 41
-349 59 -511 46z m386 -334 c146 -41 243 -113 299 -224 100 -196 93 -574 -16
-851 -120 -305 -323 -517 -553 -575 -75 -19 -221 -19 -317 -1 -75 14 -182 53
-225 81 l-23 16 31 46 c69 99 94 238 70 378 -28 160 -137 333 -288 457 l-33
26 30 72 c124 301 339 517 580 585 74 20 358 14 445 -10z m-1785 -675 c149
-14 208 -26 302 -62 l77 -29 -7 -47 c-4 -26 -7 -128 -7 -227 0 -205 16 -282
84 -419 l38 -74 -72 -21 c-39 -12 -120 -28 -181 -36 -119 -16 -384 -20 -384
-6 0 4 9 91 20 192 29 259 33 419 18 592 -8 81 -11 147 -8 147 3 0 57 -5 120
-10z m730 -416 c11 -23 25 -67 31 -98 10 -48 9 -63 -6 -103 l-19 -48 -18 41
c-30 70 -48 155 -48 229 l0 70 20 -25 c10 -14 28 -44 40 -66z"/>
</g>
</svg>
